<mxfile host="app.diagrams.net" modified="2020-09-08T01:39:51.121Z" agent="5.0 (Windows NT 10.0; Win64; x64) AppleWebKit/537.36 (KHTML, like Gecko) Chrome/84.0.4147.105 Safari/537.36" etag="lYPbpED3MTM5isT9jumn" version="13.6.6" type="github">
  <diagram id="6a731a19-8d31-9384-78a2-239565b7b9f0" name="Page-1">
    <mxGraphModel dx="5909" dy="3474" grid="1" gridSize="10" guides="1" tooltips="1" connect="1" arrows="1" fold="1" page="1" pageScale="1" pageWidth="1169" pageHeight="827" background="#ffffff" math="0" shadow="0">
      <root>
        <mxCell id="0" />
        <mxCell id="1" parent="0" />
        <mxCell id="1350" value="Jquery" style="ellipse;whiteSpace=wrap;html=1;shadow=0;fontFamily=Helvetica;fontSize=20;fontColor=#FFFFFF;align=center;strokeWidth=3;fillColor=#1699D3;strokeColor=none;" parent="1" vertex="1">
          <mxGeometry x="168.5" y="365" width="120" height="120" as="geometry" />
        </mxCell>
        <mxCell id="1351" value="Vue" style="ellipse;whiteSpace=wrap;html=1;shadow=0;fontFamily=Helvetica;fontSize=20;fontColor=#FFFFFF;align=center;strokeWidth=3;fillColor=#F08705;strokeColor=none;gradientColor=none;" parent="1" vertex="1">
          <mxGeometry x="765" y="160" width="120" height="120" as="geometry" />
        </mxCell>
        <mxCell id="1352" value="React" style="ellipse;whiteSpace=wrap;html=1;shadow=0;fontFamily=Helvetica;fontSize=20;fontColor=#FFFFFF;align=center;strokeWidth=3;fillColor=#E85642;strokeColor=none;" parent="1" vertex="1">
          <mxGeometry x="1362.5" y="275" width="120" height="120" as="geometry" />
        </mxCell>
        <mxCell id="1353" value="UI框架" style="ellipse;whiteSpace=wrap;html=1;shadow=0;fontFamily=Helvetica;fontSize=20;fontColor=#FFFFFF;align=center;strokeWidth=3;fillColor=#1699D3;strokeColor=none;" parent="1" vertex="1">
          <mxGeometry x="2015" y="430" width="120" height="120" as="geometry" />
        </mxCell>
        <mxCell id="1354" value="打包工具使用与优化" style="ellipse;whiteSpace=wrap;html=1;shadow=0;fontFamily=Helvetica;fontSize=20;fontColor=#FFFFFF;align=center;strokeWidth=3;fillColor=#736ca8;strokeColor=none;" parent="1" vertex="1">
          <mxGeometry x="1872.5" y="844.5" width="120" height="120" as="geometry" />
        </mxCell>
        <mxCell id="1355" value="跨平台开发" style="ellipse;whiteSpace=wrap;html=1;shadow=0;fontFamily=Helvetica;fontSize=20;fontColor=#FFFFFF;align=center;strokeWidth=3;fillColor=#F08705;strokeColor=none;" parent="1" vertex="1">
          <mxGeometry x="1488.75" y="1278.25" width="120" height="120" as="geometry" />
        </mxCell>
        <mxCell id="1356" value="css" style="ellipse;whiteSpace=wrap;html=1;shadow=0;fontFamily=Helvetica;fontSize=20;fontColor=#FFFFFF;align=center;strokeWidth=3;fillColor=#E85642;strokeColor=none;" parent="1" vertex="1">
          <mxGeometry x="667.5" y="1292" width="120" height="120" as="geometry" />
        </mxCell>
        <mxCell id="1357" value="vue思想" style="rounded=1;fillColor=#f5af58;strokeColor=none;strokeWidth=3;shadow=0;html=1;fontColor=#FFFFFF;" parent="1" vertex="1">
          <mxGeometry x="635" y="330" width="120" height="40" as="geometry" />
        </mxCell>
        <mxCell id="1358" value="样式操作" style="rounded=1;fillColor=#64BBE2;strokeColor=none;strokeWidth=3;shadow=0;html=1;fontColor=#FFFFFF;" parent="1" vertex="1">
          <mxGeometry x="-6.5" y="510" width="130" height="40" as="geometry" />
        </mxCell>
        <mxCell id="1359" style="endArrow=none;strokeWidth=6;strokeColor=#1699D3;html=1;" parent="1" source="1515" target="1350" edge="1">
          <mxGeometry relative="1" as="geometry" />
        </mxCell>
        <mxCell id="1360" style="endArrow=none;strokeWidth=6;strokeColor=#f08705;html=1;" parent="1" source="1515" target="1351" edge="1">
          <mxGeometry relative="1" as="geometry" />
        </mxCell>
        <mxCell id="1361" style="endArrow=none;strokeWidth=6;strokeColor=#E85642;html=1;" parent="1" source="1515" target="1352" edge="1">
          <mxGeometry relative="1" as="geometry" />
        </mxCell>
        <mxCell id="1362" style="endArrow=none;strokeWidth=6;strokeColor=#1699D3;html=1;" parent="1" source="1515" target="1353" edge="1">
          <mxGeometry relative="1" as="geometry" />
        </mxCell>
        <mxCell id="1363" style="endArrow=none;strokeWidth=6;strokeColor=#736CA8;html=1;" parent="1" source="1515" target="1516" edge="1">
          <mxGeometry relative="1" as="geometry" />
        </mxCell>
        <mxCell id="1364" style="endArrow=none;strokeWidth=6;strokeColor=#736ca8;html=1;" parent="1" source="1515" target="1354" edge="1">
          <mxGeometry relative="1" as="geometry" />
        </mxCell>
        <mxCell id="1365" value="" style="edgeStyle=none;endArrow=none;strokeWidth=6;strokeColor=#F08705;html=1;" parent="1" source="1515" target="1355" edge="1">
          <mxGeometry x="181" y="226.5" width="100" height="100" as="geometry">
            <mxPoint x="181" y="326.5" as="sourcePoint" />
            <mxPoint x="281" y="226.5" as="targetPoint" />
          </mxGeometry>
        </mxCell>
        <mxCell id="1366" value="" style="edgeStyle=none;endArrow=none;strokeWidth=6;strokeColor=#E85642;html=1;" parent="1" source="1515" target="1356" edge="1">
          <mxGeometry x="181" y="226.5" width="100" height="100" as="geometry">
            <mxPoint x="181" y="326.5" as="sourcePoint" />
            <mxPoint x="281" y="226.5" as="targetPoint" />
          </mxGeometry>
        </mxCell>
        <mxCell id="1367" value="DOM操作" style="rounded=1;fillColor=#64BBE2;strokeColor=none;strokeWidth=3;shadow=0;html=1;fontColor=#FFFFFF;" parent="1" vertex="1">
          <mxGeometry x="128.5" y="560" width="130" height="40" as="geometry" />
        </mxCell>
        <mxCell id="1368" value="事件绑定" style="rounded=1;fillColor=#64BBE2;strokeColor=none;strokeWidth=3;shadow=0;html=1;fontColor=#FFFFFF;" parent="1" vertex="1">
          <mxGeometry x="-11.5" y="410" width="130" height="40" as="geometry" />
        </mxCell>
        <mxCell id="1369" value="异步回调解决方法" style="rounded=1;fillColor=#64BBE2;strokeColor=none;strokeWidth=3;shadow=0;html=1;fontColor=#FFFFFF;" parent="1" vertex="1">
          <mxGeometry x="-16.5" y="335" width="130" height="40" as="geometry" />
        </mxCell>
        <mxCell id="1370" value="回调对象设计" style="rounded=1;fillColor=#64BBE2;strokeColor=none;strokeWidth=3;shadow=0;html=1;fontColor=#FFFFFF;" parent="1" vertex="1">
          <mxGeometry x="57" y="255" width="130" height="40" as="geometry" />
        </mxCell>
        <mxCell id="1371" value="Sizzle(选择器)" style="rounded=1;fillColor=#64BBE2;strokeColor=none;strokeWidth=3;shadow=0;html=1;fontColor=#FFFFFF;" parent="1" vertex="1">
          <mxGeometry x="158.5" y="203.5" width="130" height="40" as="geometry" />
        </mxCell>
        <mxCell id="1372" value="整体框架" style="rounded=1;fillColor=#64BBE2;strokeColor=none;strokeWidth=3;shadow=0;html=1;fontColor=#FFFFFF;" parent="1" vertex="1">
          <mxGeometry x="288.5" y="255" width="130" height="40" as="geometry" />
        </mxCell>
        <mxCell id="1378" value="" style="edgeStyle=none;endArrow=none;strokeWidth=3;strokeColor=#64BBE2;html=1;" parent="1" source="1350" target="1367" edge="1">
          <mxGeometry x="-576.5" y="150" width="100" height="100" as="geometry">
            <mxPoint x="-576.5" y="250" as="sourcePoint" />
            <mxPoint x="-476.5" y="150" as="targetPoint" />
          </mxGeometry>
        </mxCell>
        <mxCell id="1379" value="" style="edgeStyle=none;endArrow=none;strokeWidth=3;strokeColor=#64BBE2;html=1;" parent="1" source="1350" target="1358" edge="1">
          <mxGeometry x="-576.5" y="150" width="100" height="100" as="geometry">
            <mxPoint x="-576.5" y="250" as="sourcePoint" />
            <mxPoint x="-476.5" y="150" as="targetPoint" />
          </mxGeometry>
        </mxCell>
        <mxCell id="1380" value="" style="edgeStyle=none;endArrow=none;strokeWidth=3;strokeColor=#64BBE2;html=1;" parent="1" source="1350" target="1368" edge="1">
          <mxGeometry x="-576.5" y="150" width="100" height="100" as="geometry">
            <mxPoint x="-576.5" y="250" as="sourcePoint" />
            <mxPoint x="-476.5" y="150" as="targetPoint" />
          </mxGeometry>
        </mxCell>
        <mxCell id="1381" value="" style="edgeStyle=none;endArrow=none;strokeWidth=3;strokeColor=#64BBE2;html=1;" parent="1" source="1350" target="1369" edge="1">
          <mxGeometry x="-576.5" y="150" width="100" height="100" as="geometry">
            <mxPoint x="-576.5" y="250" as="sourcePoint" />
            <mxPoint x="-476.5" y="150" as="targetPoint" />
          </mxGeometry>
        </mxCell>
        <mxCell id="1382" value="" style="edgeStyle=none;endArrow=none;strokeWidth=3;strokeColor=#64BBE2;html=1;" parent="1" source="1350" target="1370" edge="1">
          <mxGeometry x="-576.5" y="150" width="100" height="100" as="geometry">
            <mxPoint x="-576.5" y="250" as="sourcePoint" />
            <mxPoint x="-476.5" y="150" as="targetPoint" />
          </mxGeometry>
        </mxCell>
        <mxCell id="1383" value="" style="edgeStyle=none;endArrow=none;strokeWidth=3;strokeColor=#64BBE2;html=1;" parent="1" source="1350" target="1371" edge="1">
          <mxGeometry x="-576.5" y="150" width="100" height="100" as="geometry">
            <mxPoint x="-576.5" y="250" as="sourcePoint" />
            <mxPoint x="-476.5" y="150" as="targetPoint" />
          </mxGeometry>
        </mxCell>
        <mxCell id="1384" value="" style="edgeStyle=none;endArrow=none;strokeWidth=3;strokeColor=#64BBE2;html=1;" parent="1" source="1350" target="1372" edge="1">
          <mxGeometry x="-576.5" y="150" width="100" height="100" as="geometry">
            <mxPoint x="-576.5" y="250" as="sourcePoint" />
            <mxPoint x="-476.5" y="150" as="targetPoint" />
          </mxGeometry>
        </mxCell>
        <mxCell id="1388" value="插槽" style="rounded=1;fillColor=#f5af58;strokeColor=none;strokeWidth=3;shadow=0;html=1;fontColor=#FFFFFF;" parent="1" vertex="1">
          <mxGeometry x="575" y="260" width="120" height="40" as="geometry" />
        </mxCell>
        <mxCell id="1389" value="vue动画" style="rounded=1;fillColor=#f5af58;strokeColor=none;strokeWidth=3;shadow=0;html=1;fontColor=#FFFFFF;" parent="1" vertex="1">
          <mxGeometry x="565" y="190" width="120" height="40" as="geometry" />
        </mxCell>
        <mxCell id="1390" value="vue组件及通讯" style="rounded=1;fillColor=#f5af58;strokeColor=none;strokeWidth=3;shadow=0;html=1;fontColor=#FFFFFF;" parent="1" vertex="1">
          <mxGeometry x="585" y="120" width="120" height="40" as="geometry" />
        </mxCell>
        <mxCell id="1391" value="生命周期" style="rounded=1;fillColor=#f5af58;strokeColor=none;strokeWidth=3;shadow=0;html=1;fontColor=#FFFFFF;" parent="1" vertex="1">
          <mxGeometry x="625" y="60" width="120" height="40" as="geometry" />
        </mxCell>
        <mxCell id="1392" value="Watch和Computer" style="rounded=1;fillColor=#f5af58;strokeColor=none;strokeWidth=3;shadow=0;html=1;fontColor=#FFFFFF;" parent="1" vertex="1">
          <mxGeometry x="695" width="120" height="40" as="geometry" />
        </mxCell>
        <mxCell id="1393" value="vue事件绑定" style="rounded=1;fillColor=#f5af58;strokeColor=none;strokeWidth=3;shadow=0;html=1;fontColor=#FFFFFF;" parent="1" vertex="1">
          <mxGeometry x="825" width="120" height="40" as="geometry" />
        </mxCell>
        <mxCell id="1394" value="内部运行机制" style="rounded=1;fillColor=#f5af58;strokeColor=none;strokeWidth=3;shadow=0;html=1;fontColor=#FFFFFF;" parent="1" vertex="1">
          <mxGeometry x="895" y="60" width="120" height="40" as="geometry" />
        </mxCell>
        <mxCell id="1395" value="自定义指令" style="rounded=1;fillColor=#f5af58;strokeColor=none;strokeWidth=3;shadow=0;html=1;fontColor=#FFFFFF;" parent="1" vertex="1">
          <mxGeometry x="945" y="120" width="120" height="40" as="geometry" />
        </mxCell>
        <mxCell id="1396" value="vue-cli工具使用" style="rounded=1;fillColor=#f5af58;strokeColor=none;strokeWidth=3;shadow=0;html=1;fontColor=#FFFFFF;" parent="1" vertex="1">
          <mxGeometry x="960" y="190" width="120" height="40" as="geometry" />
        </mxCell>
        <mxCell id="1397" value="vue模板编译渲染及其原理" style="rounded=1;fillColor=#f5af58;strokeColor=none;strokeWidth=3;shadow=0;html=1;fontColor=#FFFFFF;" parent="1" vertex="1">
          <mxGeometry x="955" y="250" width="156.5" height="40" as="geometry" />
        </mxCell>
        <mxCell id="1398" value="服务器渲染" style="rounded=1;fillColor=#f5af58;strokeColor=none;strokeWidth=3;shadow=0;html=1;fontColor=#FFFFFF;" parent="1" vertex="1">
          <mxGeometry x="900" y="320" width="120" height="40" as="geometry" />
        </mxCell>
        <mxCell id="1399" value="" style="edgeStyle=none;endArrow=none;strokeWidth=3;strokeColor=#F5AF58;html=1;" parent="1" source="1351" target="1357" edge="1">
          <mxGeometry x="-335" y="-60" width="100" height="100" as="geometry">
            <mxPoint x="-335" y="40" as="sourcePoint" />
            <mxPoint x="-235" y="-60" as="targetPoint" />
          </mxGeometry>
        </mxCell>
        <mxCell id="1400" value="" style="edgeStyle=none;endArrow=none;strokeWidth=3;strokeColor=#F5AF58;html=1;" parent="1" source="1351" target="1388" edge="1">
          <mxGeometry x="-335" y="-60" width="100" height="100" as="geometry">
            <mxPoint x="-335" y="40" as="sourcePoint" />
            <mxPoint x="-235" y="-60" as="targetPoint" />
          </mxGeometry>
        </mxCell>
        <mxCell id="1401" value="" style="edgeStyle=none;endArrow=none;strokeWidth=3;strokeColor=#F5AF58;html=1;" parent="1" source="1351" target="1389" edge="1">
          <mxGeometry x="-335" y="-60" width="100" height="100" as="geometry">
            <mxPoint x="-335" y="40" as="sourcePoint" />
            <mxPoint x="-235" y="-60" as="targetPoint" />
          </mxGeometry>
        </mxCell>
        <mxCell id="1402" value="" style="edgeStyle=none;endArrow=none;strokeWidth=3;strokeColor=#F5AF58;html=1;" parent="1" source="1351" target="1390" edge="1">
          <mxGeometry x="-335" y="-60" width="100" height="100" as="geometry">
            <mxPoint x="-335" y="40" as="sourcePoint" />
            <mxPoint x="-235" y="-60" as="targetPoint" />
          </mxGeometry>
        </mxCell>
        <mxCell id="1403" value="" style="edgeStyle=none;endArrow=none;strokeWidth=3;strokeColor=#F5AF58;html=1;" parent="1" source="1351" target="1391" edge="1">
          <mxGeometry x="-335" y="-60" width="100" height="100" as="geometry">
            <mxPoint x="-335" y="40" as="sourcePoint" />
            <mxPoint x="-235" y="-60" as="targetPoint" />
          </mxGeometry>
        </mxCell>
        <mxCell id="1404" value="" style="edgeStyle=none;endArrow=none;strokeWidth=3;strokeColor=#F5AF58;html=1;" parent="1" source="1351" target="1392" edge="1">
          <mxGeometry x="-335" y="-60" width="100" height="100" as="geometry">
            <mxPoint x="-335" y="40" as="sourcePoint" />
            <mxPoint x="-235" y="-60" as="targetPoint" />
          </mxGeometry>
        </mxCell>
        <mxCell id="1405" value="" style="edgeStyle=none;endArrow=none;strokeWidth=3;strokeColor=#F5AF58;html=1;" parent="1" source="1351" target="1393" edge="1">
          <mxGeometry x="-335" y="-60" width="100" height="100" as="geometry">
            <mxPoint x="-335" y="40" as="sourcePoint" />
            <mxPoint x="-235" y="-60" as="targetPoint" />
          </mxGeometry>
        </mxCell>
        <mxCell id="1406" value="" style="edgeStyle=none;endArrow=none;strokeWidth=3;strokeColor=#F5AF58;html=1;" parent="1" source="1351" target="1394" edge="1">
          <mxGeometry x="-335" y="-60" width="100" height="100" as="geometry">
            <mxPoint x="-335" y="40" as="sourcePoint" />
            <mxPoint x="-235" y="-60" as="targetPoint" />
          </mxGeometry>
        </mxCell>
        <mxCell id="1407" value="" style="edgeStyle=none;endArrow=none;strokeWidth=3;strokeColor=#F5AF58;html=1;" parent="1" source="1351" target="1395" edge="1">
          <mxGeometry x="-335" y="-60" width="100" height="100" as="geometry">
            <mxPoint x="-335" y="40" as="sourcePoint" />
            <mxPoint x="-235" y="-60" as="targetPoint" />
          </mxGeometry>
        </mxCell>
        <mxCell id="1408" value="" style="edgeStyle=none;endArrow=none;strokeWidth=3;strokeColor=#F5AF58;html=1;" parent="1" source="1351" target="1396" edge="1">
          <mxGeometry x="-335" y="-60" width="100" height="100" as="geometry">
            <mxPoint x="-335" y="40" as="sourcePoint" />
            <mxPoint x="-235" y="-60" as="targetPoint" />
          </mxGeometry>
        </mxCell>
        <mxCell id="1409" value="" style="edgeStyle=none;endArrow=none;strokeWidth=3;strokeColor=#F5AF58;html=1;" parent="1" source="1351" target="1397" edge="1">
          <mxGeometry x="-335" y="-60" width="100" height="100" as="geometry">
            <mxPoint x="-335" y="40" as="sourcePoint" />
            <mxPoint x="-235" y="-60" as="targetPoint" />
          </mxGeometry>
        </mxCell>
        <mxCell id="1410" value="" style="edgeStyle=none;endArrow=none;strokeWidth=3;strokeColor=#F5AF58;html=1;" parent="1" source="1351" target="1398" edge="1">
          <mxGeometry x="-335" y="-60" width="100" height="100" as="geometry">
            <mxPoint x="-335" y="40" as="sourcePoint" />
            <mxPoint x="-235" y="-60" as="targetPoint" />
          </mxGeometry>
        </mxCell>
        <mxCell id="1411" value="react-router" style="rounded=1;fillColor=#f08e81;strokeColor=none;strokeWidth=3;shadow=0;html=1;fontColor=#FFFFFF;" parent="1" vertex="1">
          <mxGeometry x="1190" y="430" width="120" height="40" as="geometry" />
        </mxCell>
        <mxCell id="1412" value="数据管理dva" style="rounded=1;fillColor=#f08e81;strokeColor=none;strokeWidth=3;shadow=0;html=1;fontColor=#FFFFFF;" parent="1" vertex="1">
          <mxGeometry x="1607.5" y="320" width="120" height="40" as="geometry" />
        </mxCell>
        <mxCell id="1413" value="自定义组件" style="rounded=1;fillColor=#f08e81;strokeColor=none;strokeWidth=3;shadow=0;html=1;fontColor=#FFFFFF;" parent="1" vertex="1">
          <mxGeometry x="1152.5" y="355" width="120" height="40" as="geometry" />
        </mxCell>
        <mxCell id="1414" value="组件通讯" style="rounded=1;fillColor=#f08e81;strokeColor=none;strokeWidth=3;shadow=0;html=1;fontColor=#FFFFFF;" parent="1" vertex="1">
          <mxGeometry x="1182.5" y="290" width="120" height="40" as="geometry" />
        </mxCell>
        <mxCell id="1415" value="生命周期与数据操作" style="rounded=1;fillColor=#f08e81;strokeColor=none;strokeWidth=3;shadow=0;html=1;fontColor=#FFFFFF;" parent="1" vertex="1">
          <mxGeometry x="1202.5" y="210" width="120" height="40" as="geometry" />
        </mxCell>
        <mxCell id="1416" value="虚拟Dom与JSX" style="rounded=1;fillColor=#f08e81;strokeColor=none;strokeWidth=3;shadow=0;html=1;fontColor=#FFFFFF;" parent="1" vertex="1">
          <mxGeometry x="1292.5" y="140" width="120" height="40" as="geometry" />
        </mxCell>
        <mxCell id="1417" value="高阶组件" style="rounded=1;fillColor=#f08e81;strokeColor=none;strokeWidth=3;shadow=0;html=1;fontColor=#FFFFFF;" parent="1" vertex="1">
          <mxGeometry x="1427.5" y="85" width="120" height="40" as="geometry" />
        </mxCell>
        <mxCell id="1418" value="React hooks" style="rounded=1;fillColor=#f08e81;strokeColor=none;strokeWidth=3;shadow=0;html=1;fontColor=#FFFFFF;" parent="1" vertex="1">
          <mxGeometry x="1522.5" y="170" width="120" height="40" as="geometry" />
        </mxCell>
        <mxCell id="1419" value="性能优化" style="rounded=1;fillColor=#f08e81;strokeColor=none;strokeWidth=3;shadow=0;html=1;fontColor=#FFFFFF;" parent="1" vertex="1">
          <mxGeometry x="1577.5" y="240" width="120" height="40" as="geometry" />
        </mxCell>
        <mxCell id="1420" value="React动画" style="rounded=1;fillColor=#f08e81;strokeColor=none;strokeWidth=3;shadow=0;html=1;fontColor=#FFFFFF;" parent="1" vertex="1">
          <mxGeometry x="1352.5" y="495" width="120" height="40" as="geometry" />
        </mxCell>
        <mxCell id="1421" value="ant-design" style="rounded=1;fillColor=#f08e81;strokeColor=none;strokeWidth=3;shadow=0;html=1;fontColor=#FFFFFF;" parent="1" vertex="1">
          <mxGeometry x="1442.5" y="425" width="120" height="40" as="geometry" />
        </mxCell>
        <mxCell id="1422" value="umi.js" style="rounded=1;fillColor=#f08e81;strokeColor=none;strokeWidth=3;shadow=0;html=1;fontColor=#FFFFFF;" parent="1" vertex="1">
          <mxGeometry x="1537.5" y="380" width="120" height="40" as="geometry" />
        </mxCell>
        <mxCell id="1423" value="" style="edgeStyle=none;endArrow=none;strokeWidth=3;strokeColor=#F08E81;html=1;" parent="1" source="1352" target="1411" edge="1">
          <mxGeometry x="-307.5" y="25" width="100" height="100" as="geometry">
            <mxPoint x="-307.5" y="125" as="sourcePoint" />
            <mxPoint x="-207.5" y="25" as="targetPoint" />
          </mxGeometry>
        </mxCell>
        <mxCell id="1424" value="" style="edgeStyle=none;endArrow=none;strokeWidth=3;strokeColor=#F08E81;html=1;" parent="1" source="1352" target="1413" edge="1">
          <mxGeometry x="-307.5" y="25" width="100" height="100" as="geometry">
            <mxPoint x="-307.5" y="125" as="sourcePoint" />
            <mxPoint x="-207.5" y="25" as="targetPoint" />
          </mxGeometry>
        </mxCell>
        <mxCell id="1425" value="" style="edgeStyle=none;endArrow=none;strokeWidth=3;strokeColor=#F08E81;html=1;" parent="1" source="1352" target="1414" edge="1">
          <mxGeometry x="-307.5" y="25" width="100" height="100" as="geometry">
            <mxPoint x="-307.5" y="125" as="sourcePoint" />
            <mxPoint x="-207.5" y="25" as="targetPoint" />
          </mxGeometry>
        </mxCell>
        <mxCell id="1426" value="" style="edgeStyle=none;endArrow=none;strokeWidth=3;strokeColor=#F08E81;html=1;" parent="1" source="1352" target="1415" edge="1">
          <mxGeometry x="-307.5" y="25" width="100" height="100" as="geometry">
            <mxPoint x="-307.5" y="125" as="sourcePoint" />
            <mxPoint x="-207.5" y="25" as="targetPoint" />
          </mxGeometry>
        </mxCell>
        <mxCell id="1427" value="" style="edgeStyle=none;endArrow=none;strokeWidth=3;strokeColor=#F08E81;html=1;" parent="1" source="1352" target="1416" edge="1">
          <mxGeometry x="-307.5" y="25" width="100" height="100" as="geometry">
            <mxPoint x="-307.5" y="125" as="sourcePoint" />
            <mxPoint x="-207.5" y="25" as="targetPoint" />
          </mxGeometry>
        </mxCell>
        <mxCell id="1428" value="" style="edgeStyle=none;endArrow=none;strokeWidth=3;strokeColor=#F08E81;html=1;" parent="1" source="1352" target="1417" edge="1">
          <mxGeometry x="-307.5" y="25" width="100" height="100" as="geometry">
            <mxPoint x="-307.5" y="125" as="sourcePoint" />
            <mxPoint x="-207.5" y="25" as="targetPoint" />
          </mxGeometry>
        </mxCell>
        <mxCell id="1429" value="" style="edgeStyle=none;endArrow=none;strokeWidth=3;strokeColor=#F08E81;html=1;" parent="1" source="1352" target="1418" edge="1">
          <mxGeometry x="-307.5" y="25" width="100" height="100" as="geometry">
            <mxPoint x="-307.5" y="125" as="sourcePoint" />
            <mxPoint x="-207.5" y="25" as="targetPoint" />
          </mxGeometry>
        </mxCell>
        <mxCell id="1430" value="" style="edgeStyle=none;endArrow=none;strokeWidth=3;strokeColor=#F08E81;html=1;" parent="1" source="1352" target="1419" edge="1">
          <mxGeometry x="-307.5" y="25" width="100" height="100" as="geometry">
            <mxPoint x="-307.5" y="125" as="sourcePoint" />
            <mxPoint x="-207.5" y="25" as="targetPoint" />
          </mxGeometry>
        </mxCell>
        <mxCell id="1431" value="" style="edgeStyle=none;endArrow=none;strokeWidth=3;strokeColor=#F08E81;html=1;" parent="1" source="1352" target="1412" edge="1">
          <mxGeometry x="-307.5" y="25" width="100" height="100" as="geometry">
            <mxPoint x="-307.5" y="125" as="sourcePoint" />
            <mxPoint x="-207.5" y="25" as="targetPoint" />
          </mxGeometry>
        </mxCell>
        <mxCell id="1432" value="" style="edgeStyle=none;endArrow=none;strokeWidth=3;strokeColor=#F08E81;html=1;" parent="1" source="1352" target="1422" edge="1">
          <mxGeometry x="-307.5" y="25" width="100" height="100" as="geometry">
            <mxPoint x="-307.5" y="125" as="sourcePoint" />
            <mxPoint x="-207.5" y="25" as="targetPoint" />
          </mxGeometry>
        </mxCell>
        <mxCell id="1433" value="" style="edgeStyle=none;endArrow=none;strokeWidth=3;strokeColor=#F08E81;html=1;" parent="1" source="1352" target="1421" edge="1">
          <mxGeometry x="-307.5" y="25" width="100" height="100" as="geometry">
            <mxPoint x="-307.5" y="125" as="sourcePoint" />
            <mxPoint x="-207.5" y="25" as="targetPoint" />
          </mxGeometry>
        </mxCell>
        <mxCell id="1434" value="" style="edgeStyle=none;endArrow=none;strokeWidth=3;strokeColor=#F08E81;html=1;" parent="1" source="1352" target="1420" edge="1">
          <mxGeometry x="-307.5" y="25" width="100" height="100" as="geometry">
            <mxPoint x="-307.5" y="125" as="sourcePoint" />
            <mxPoint x="-207.5" y="25" as="targetPoint" />
          </mxGeometry>
        </mxCell>
        <mxCell id="1435" value="Bootstrap" style="rounded=1;fillColor=#64BBE2;strokeColor=none;strokeWidth=3;shadow=0;html=1;fontColor=#FFFFFF;" parent="1" vertex="1">
          <mxGeometry x="1860" y="390" width="120" height="40" as="geometry" />
        </mxCell>
        <mxCell id="1436" value="ant-design" style="rounded=1;fillColor=#64BBE2;strokeColor=none;strokeWidth=3;shadow=0;html=1;fontColor=#FFFFFF;" parent="1" vertex="1">
          <mxGeometry x="1890" y="320" width="120" height="40" as="geometry" />
        </mxCell>
        <mxCell id="1437" value="element-ui" style="rounded=1;fillColor=#64BBE2;strokeColor=none;strokeWidth=3;shadow=0;html=1;fontColor=#FFFFFF;" parent="1" vertex="1">
          <mxGeometry x="2015" y="290" width="120" height="40" as="geometry" />
        </mxCell>
        <mxCell id="1438" value="element-mobile" style="rounded=1;fillColor=#64BBE2;strokeColor=none;strokeWidth=3;shadow=0;html=1;fontColor=#FFFFFF;" parent="1" vertex="1">
          <mxGeometry x="2160" y="300" width="120" height="40" as="geometry" />
        </mxCell>
        <mxCell id="1439" value="vant" style="rounded=1;fillColor=#64BBE2;strokeColor=none;strokeWidth=3;shadow=0;html=1;fontColor=#FFFFFF;" parent="1" vertex="1">
          <mxGeometry x="2260" y="395" width="120" height="40" as="geometry" />
        </mxCell>
        <mxCell id="1440" value="iview" style="rounded=1;fillColor=#64BBE2;strokeColor=none;strokeWidth=3;shadow=0;html=1;fontColor=#FFFFFF;" parent="1" vertex="1">
          <mxGeometry x="2218" y="520" width="120" height="40" as="geometry" />
        </mxCell>
        <mxCell id="1442" value="Material-UI" style="rounded=1;fillColor=#64BBE2;strokeColor=none;strokeWidth=3;shadow=0;html=1;fontColor=#FFFFFF;" parent="1" vertex="1">
          <mxGeometry x="2040" y="600" width="120" height="40" as="geometry" />
        </mxCell>
        <mxCell id="1445" value="weUI" style="rounded=1;fillColor=#64BBE2;strokeColor=none;strokeWidth=3;shadow=0;html=1;fontColor=#FFFFFF;" parent="1" vertex="1">
          <mxGeometry x="1825" y="465" width="120" height="40" as="geometry" />
        </mxCell>
        <mxCell id="1446" value="" style="edgeStyle=none;endArrow=none;strokeWidth=3;strokeColor=#64BBE2;html=1;" parent="1" source="1353" target="1435" edge="1">
          <mxGeometry x="55" y="-180" width="100" height="100" as="geometry">
            <mxPoint x="55" y="-80" as="sourcePoint" />
            <mxPoint x="155" y="-180" as="targetPoint" />
          </mxGeometry>
        </mxCell>
        <mxCell id="1447" value="" style="edgeStyle=none;endArrow=none;strokeWidth=3;strokeColor=#64BBE2;html=1;" parent="1" source="1353" target="1436" edge="1">
          <mxGeometry x="55" y="-180" width="100" height="100" as="geometry">
            <mxPoint x="55" y="-80" as="sourcePoint" />
            <mxPoint x="155" y="-180" as="targetPoint" />
          </mxGeometry>
        </mxCell>
        <mxCell id="1448" value="" style="edgeStyle=none;endArrow=none;strokeWidth=3;strokeColor=#64BBE2;html=1;" parent="1" source="1353" target="1437" edge="1">
          <mxGeometry x="55" y="-180" width="100" height="100" as="geometry">
            <mxPoint x="55" y="-80" as="sourcePoint" />
            <mxPoint x="155" y="-180" as="targetPoint" />
          </mxGeometry>
        </mxCell>
        <mxCell id="1449" value="" style="edgeStyle=none;endArrow=none;strokeWidth=3;strokeColor=#64BBE2;html=1;" parent="1" source="1353" edge="1">
          <mxGeometry x="55" y="-180" width="100" height="100" as="geometry">
            <mxPoint x="55" y="-80" as="sourcePoint" />
            <mxPoint x="2170" y="340" as="targetPoint" />
          </mxGeometry>
        </mxCell>
        <mxCell id="1450" value="" style="edgeStyle=none;endArrow=none;strokeWidth=3;strokeColor=#64BBE2;html=1;" parent="1" source="1353" target="1439" edge="1">
          <mxGeometry x="55" y="-180" width="100" height="100" as="geometry">
            <mxPoint x="55" y="-80" as="sourcePoint" />
            <mxPoint x="155" y="-180" as="targetPoint" />
          </mxGeometry>
        </mxCell>
        <mxCell id="1451" value="" style="edgeStyle=none;endArrow=none;strokeWidth=3;strokeColor=#64BBE2;html=1;" parent="1" source="1353" target="1440" edge="1">
          <mxGeometry x="55" y="-180" width="100" height="100" as="geometry">
            <mxPoint x="55" y="-80" as="sourcePoint" />
            <mxPoint x="155" y="-180" as="targetPoint" />
          </mxGeometry>
        </mxCell>
        <mxCell id="1452" value="" style="edgeStyle=none;endArrow=none;strokeWidth=3;strokeColor=#64BBE2;html=1;" parent="1" source="1353" target="1442" edge="1">
          <mxGeometry x="55" y="-180" width="100" height="100" as="geometry">
            <mxPoint x="55" y="-80" as="sourcePoint" />
            <mxPoint x="155" y="-180" as="targetPoint" />
          </mxGeometry>
        </mxCell>
        <mxCell id="1456" value="" style="edgeStyle=none;endArrow=none;strokeWidth=3;strokeColor=#64BBE2;html=1;" parent="1" source="1353" target="1445" edge="1">
          <mxGeometry x="55" y="-180" width="100" height="100" as="geometry">
            <mxPoint x="55" y="-80" as="sourcePoint" />
            <mxPoint x="155" y="-180" as="targetPoint" />
          </mxGeometry>
        </mxCell>
        <mxCell id="1457" value="grunt" style="rounded=1;fillColor=#a29dc5;strokeColor=none;strokeWidth=3;shadow=0;html=1;fontColor=#FFFFFF;" parent="1" vertex="1">
          <mxGeometry x="1750" y="784.5" width="120" height="40" as="geometry" />
        </mxCell>
        <mxCell id="1458" value="压缩、合并、拆分、混淆" style="rounded=1;fillColor=#a29dc5;strokeColor=none;strokeWidth=3;shadow=0;html=1;fontColor=#FFFFFF;" parent="1" vertex="1">
          <mxGeometry x="1750" y="1004.5" width="170" height="40" as="geometry" />
        </mxCell>
        <mxCell id="1459" value="glup" style="rounded=1;fillColor=#a29dc5;strokeColor=none;strokeWidth=3;shadow=0;html=1;fontColor=#FFFFFF;" parent="1" vertex="1">
          <mxGeometry x="1932.5" y="787" width="120" height="40" as="geometry" />
        </mxCell>
        <mxCell id="1460" value="webpack" style="rounded=1;fillColor=#a29dc5;strokeColor=none;strokeWidth=3;shadow=0;html=1;fontColor=#FFFFFF;" parent="1" vertex="1">
          <mxGeometry x="2032.5" y="867" width="120" height="40" as="geometry" />
        </mxCell>
        <mxCell id="1461" value="ES6编译" style="rounded=1;fillColor=#a29dc5;strokeColor=none;strokeWidth=3;shadow=0;html=1;fontColor=#FFFFFF;" parent="1" vertex="1">
          <mxGeometry x="1952.5" y="1004.5" width="120" height="40" as="geometry" />
        </mxCell>
        <mxCell id="1462" value="打包兼容浏览器" style="rounded=1;fillColor=#a29dc5;strokeColor=none;strokeWidth=3;shadow=0;html=1;fontColor=#FFFFFF;" parent="1" vertex="1">
          <mxGeometry x="1693" y="907" width="120" height="40" as="geometry" />
        </mxCell>
        <mxCell id="1463" value="" style="edgeStyle=none;endArrow=none;strokeWidth=3;strokeColor=#A29DC5;html=1;" parent="1" source="1354" target="1460" edge="1">
          <mxGeometry x="382.5" y="-430.5" width="100" height="100" as="geometry">
            <mxPoint x="382.5" y="-330.5" as="sourcePoint" />
            <mxPoint x="482.5" y="-430.5" as="targetPoint" />
          </mxGeometry>
        </mxCell>
        <mxCell id="1464" value="" style="edgeStyle=none;endArrow=none;strokeWidth=3;strokeColor=#A29DC5;html=1;" parent="1" source="1354" target="1461" edge="1">
          <mxGeometry x="382.5" y="-430.5" width="100" height="100" as="geometry">
            <mxPoint x="382.5" y="-330.5" as="sourcePoint" />
            <mxPoint x="482.5" y="-430.5" as="targetPoint" />
          </mxGeometry>
        </mxCell>
        <mxCell id="1465" value="" style="edgeStyle=none;endArrow=none;strokeWidth=3;strokeColor=#A29DC5;html=1;" parent="1" source="1354" target="1458" edge="1">
          <mxGeometry x="382.5" y="-430.5" width="100" height="100" as="geometry">
            <mxPoint x="382.5" y="-330.5" as="sourcePoint" />
            <mxPoint x="482.5" y="-430.5" as="targetPoint" />
          </mxGeometry>
        </mxCell>
        <mxCell id="1466" value="" style="edgeStyle=none;endArrow=none;strokeWidth=3;strokeColor=#A29DC5;html=1;exitX=0.025;exitY=0.654;exitDx=0;exitDy=0;exitPerimeter=0;" parent="1" source="1354" edge="1">
          <mxGeometry x="392.5" y="-411" width="100" height="100" as="geometry">
            <mxPoint x="1870" y="924" as="sourcePoint" />
            <mxPoint x="1812.5" y="924" as="targetPoint" />
            <Array as="points">
              <mxPoint x="1840" y="924" />
            </Array>
          </mxGeometry>
        </mxCell>
        <mxCell id="1467" value="" style="edgeStyle=none;endArrow=none;strokeWidth=3;strokeColor=#A29DC5;html=1;" parent="1" source="1354" target="1457" edge="1">
          <mxGeometry x="382.5" y="-430.5" width="100" height="100" as="geometry">
            <mxPoint x="382.5" y="-330.5" as="sourcePoint" />
            <mxPoint x="482.5" y="-430.5" as="targetPoint" />
          </mxGeometry>
        </mxCell>
        <mxCell id="1470" value="Ascomycota" style="rounded=1;fillColor=#f5af58;strokeColor=none;strokeWidth=3;shadow=0;html=1;fontColor=#FFFFFF;" parent="1" vertex="1">
          <mxGeometry x="1666.5" y="1225.75" width="120" height="40" as="geometry" />
        </mxCell>
        <mxCell id="1471" value="Tora" style="rounded=1;fillColor=#f5af58;strokeColor=none;strokeWidth=3;shadow=0;html=1;fontColor=#FFFFFF;" parent="1" vertex="1">
          <mxGeometry x="1662.5" y="1348.25" width="120" height="40" as="geometry" />
        </mxCell>
        <mxCell id="1472" value="weex" style="rounded=1;fillColor=#f5af58;strokeColor=none;strokeWidth=3;shadow=0;html=1;fontColor=#FFFFFF;" parent="1" vertex="1">
          <mxGeometry x="1632.5" y="1430.75" width="120" height="40" as="geometry" />
        </mxCell>
        <mxCell id="1473" value="api-cloud" style="rounded=1;fillColor=#f5af58;strokeColor=none;strokeWidth=3;shadow=0;html=1;fontColor=#FFFFFF;" parent="1" vertex="1">
          <mxGeometry x="1488.75" y="1440.75" width="120" height="40" as="geometry" />
        </mxCell>
        <mxCell id="CmsdJY4IkPbVyUGUAFs8-1548" style="edgeStyle=orthogonalEdgeStyle;rounded=0;orthogonalLoop=1;jettySize=auto;html=1;exitX=0.75;exitY=1;exitDx=0;exitDy=0;" edge="1" parent="1" source="1474">
          <mxGeometry relative="1" as="geometry">
            <mxPoint x="1421.5" y="1440" as="targetPoint" />
          </mxGeometry>
        </mxCell>
        <mxCell id="1474" value="react-native" style="rounded=1;fillColor=#f5af58;strokeColor=none;strokeWidth=3;shadow=0;html=1;fontColor=#FFFFFF;" parent="1" vertex="1">
          <mxGeometry x="1326.25" y="1410.75" width="123.75" height="39.25" as="geometry" />
        </mxCell>
        <mxCell id="1475" value="Electorn" style="rounded=1;fillColor=#f5af58;strokeColor=none;strokeWidth=3;shadow=0;html=1;fontColor=#FFFFFF;" parent="1" vertex="1">
          <mxGeometry x="1302.5" y="1271" width="120" height="40" as="geometry" />
        </mxCell>
        <mxCell id="1476" value="uni-app" style="rounded=1;fillColor=#f5af58;strokeColor=none;strokeWidth=3;shadow=0;html=1;fontColor=#FFFFFF;" parent="1" vertex="1">
          <mxGeometry x="1475" y="1180" width="120" height="40" as="geometry" />
        </mxCell>
        <mxCell id="1482" value="" style="edgeStyle=none;endArrow=none;strokeWidth=3;strokeColor=#F5AF58;html=1;" parent="1" source="1355" target="1470" edge="1">
          <mxGeometry x="568.75" y="8.25" width="100" height="100" as="geometry">
            <mxPoint x="568.75" y="108.25" as="sourcePoint" />
            <mxPoint x="668.75" y="8.25" as="targetPoint" />
          </mxGeometry>
        </mxCell>
        <mxCell id="1483" value="" style="edgeStyle=none;endArrow=none;strokeWidth=3;strokeColor=#F5AF58;html=1;" parent="1" source="1355" target="1471" edge="1">
          <mxGeometry x="568.75" y="8.25" width="100" height="100" as="geometry">
            <mxPoint x="568.75" y="108.25" as="sourcePoint" />
            <mxPoint x="668.75" y="8.25" as="targetPoint" />
          </mxGeometry>
        </mxCell>
        <mxCell id="1484" value="" style="edgeStyle=none;endArrow=none;strokeWidth=3;strokeColor=#F5AF58;html=1;" parent="1" source="1355" target="1472" edge="1">
          <mxGeometry x="568.75" y="8.25" width="100" height="100" as="geometry">
            <mxPoint x="568.75" y="108.25" as="sourcePoint" />
            <mxPoint x="668.75" y="8.25" as="targetPoint" />
          </mxGeometry>
        </mxCell>
        <mxCell id="1485" value="" style="edgeStyle=none;endArrow=none;strokeWidth=3;strokeColor=#F5AF58;html=1;" parent="1" source="1355" target="1473" edge="1">
          <mxGeometry x="568.75" y="8.25" width="100" height="100" as="geometry">
            <mxPoint x="568.75" y="108.25" as="sourcePoint" />
            <mxPoint x="668.75" y="8.25" as="targetPoint" />
          </mxGeometry>
        </mxCell>
        <mxCell id="1486" value="" style="edgeStyle=none;endArrow=none;strokeWidth=3;strokeColor=#F5AF58;html=1;" parent="1" source="1355" target="1474" edge="1">
          <mxGeometry x="568.75" y="8.25" width="100" height="100" as="geometry">
            <mxPoint x="568.75" y="108.25" as="sourcePoint" />
            <mxPoint x="668.75" y="8.25" as="targetPoint" />
          </mxGeometry>
        </mxCell>
        <mxCell id="1487" value="" style="edgeStyle=none;endArrow=none;strokeWidth=3;strokeColor=#F5AF58;html=1;" parent="1" source="1355" target="1475" edge="1">
          <mxGeometry x="568.75" y="8.25" width="100" height="100" as="geometry">
            <mxPoint x="568.75" y="108.25" as="sourcePoint" />
            <mxPoint x="668.75" y="8.25" as="targetPoint" />
          </mxGeometry>
        </mxCell>
        <mxCell id="1488" value="" style="edgeStyle=none;endArrow=none;strokeWidth=3;strokeColor=#F5AF58;html=1;" parent="1" source="1355" target="1476" edge="1">
          <mxGeometry x="568.75" y="8.25" width="100" height="100" as="geometry">
            <mxPoint x="568.75" y="108.25" as="sourcePoint" />
            <mxPoint x="668.75" y="8.25" as="targetPoint" />
          </mxGeometry>
        </mxCell>
        <mxCell id="1491" value="less" style="rounded=1;fillColor=#f08e81;strokeColor=none;strokeWidth=3;shadow=0;html=1;fontColor=#FFFFFF;" parent="1" vertex="1">
          <mxGeometry x="609" y="1150" width="120" height="40" as="geometry" />
        </mxCell>
        <mxCell id="1492" value="sass" style="rounded=1;fillColor=#f08e81;strokeColor=none;strokeWidth=3;shadow=0;html=1;fontColor=#FFFFFF;" parent="1" vertex="1">
          <mxGeometry x="521.5" y="1204.5" width="120" height="40" as="geometry" />
        </mxCell>
        <mxCell id="1493" value="stylus" style="rounded=1;fillColor=#f08e81;strokeColor=none;strokeWidth=3;shadow=0;html=1;fontColor=#FFFFFF;" parent="1" vertex="1">
          <mxGeometry x="466.5" y="1264.5" width="120" height="40" as="geometry" />
        </mxCell>
        <mxCell id="1494" value="动画编写" style="rounded=1;fillColor=#f08e81;strokeColor=none;strokeWidth=3;shadow=0;html=1;fontColor=#FFFFFF;" parent="1" vertex="1">
          <mxGeometry x="445" y="1318.25" width="120" height="40" as="geometry" />
        </mxCell>
        <mxCell id="1495" value="样式优先级" style="rounded=1;fillColor=#f08e81;strokeColor=none;strokeWidth=3;shadow=0;html=1;fontColor=#FFFFFF;" parent="1" vertex="1">
          <mxGeometry x="461.5" y="1384.5" width="120" height="40" as="geometry" />
        </mxCell>
        <mxCell id="1496" value="编写规范" style="rounded=1;fillColor=#f08e81;strokeColor=none;strokeWidth=3;shadow=0;html=1;fontColor=#FFFFFF;" parent="1" vertex="1">
          <mxGeometry x="496.5" y="1447" width="120" height="40" as="geometry" />
        </mxCell>
        <mxCell id="1497" value="media媒体查询" style="rounded=1;fillColor=#f08e81;strokeColor=none;strokeWidth=3;shadow=0;html=1;fontColor=#FFFFFF;" parent="1" vertex="1">
          <mxGeometry x="566.5" y="1497" width="120" height="40" as="geometry" />
        </mxCell>
        <mxCell id="1498" value="兼容性写法" style="rounded=1;fillColor=#f08e81;strokeColor=none;strokeWidth=3;shadow=0;html=1;fontColor=#FFFFFF;" parent="1" vertex="1">
          <mxGeometry x="700.5" y="1539.5" width="120" height="40" as="geometry" />
        </mxCell>
        <mxCell id="1499" value="选择器" style="rounded=1;fillColor=#f08e81;strokeColor=none;strokeWidth=3;shadow=0;html=1;fontColor=#FFFFFF;" parent="1" vertex="1">
          <mxGeometry x="820.5" y="1484.5" width="120" height="40" as="geometry" />
        </mxCell>
        <mxCell id="1500" value="flex布局" style="rounded=1;fillColor=#f08e81;strokeColor=none;strokeWidth=3;shadow=0;html=1;fontColor=#FFFFFF;" parent="1" vertex="1">
          <mxGeometry x="878" y="1394.5" width="120" height="40" as="geometry" />
        </mxCell>
        <mxCell id="1501" value="自适应布局" style="rounded=1;fillColor=#f08e81;strokeColor=none;strokeWidth=3;shadow=0;html=1;fontColor=#FFFFFF;" parent="1" vertex="1">
          <mxGeometry x="869" y="1284.75" width="120" height="40" as="geometry" />
        </mxCell>
        <mxCell id="1502" value="" style="edgeStyle=none;endArrow=none;strokeWidth=3;strokeColor=#F08E81;html=1;" parent="1" source="1356" target="1501" edge="1">
          <mxGeometry x="286.5" y="189.5" width="100" height="100" as="geometry">
            <mxPoint x="286.5" y="289.5" as="sourcePoint" />
            <mxPoint x="386.5" y="189.5" as="targetPoint" />
          </mxGeometry>
        </mxCell>
        <mxCell id="1504" value="" style="edgeStyle=none;endArrow=none;strokeWidth=3;strokeColor=#F08E81;html=1;" parent="1" source="1356" target="1491" edge="1">
          <mxGeometry x="286.5" y="189.5" width="100" height="100" as="geometry">
            <mxPoint x="286.5" y="289.5" as="sourcePoint" />
            <mxPoint x="386.5" y="189.5" as="targetPoint" />
          </mxGeometry>
        </mxCell>
        <mxCell id="1505" value="" style="edgeStyle=none;endArrow=none;strokeWidth=3;strokeColor=#F08E81;html=1;" parent="1" source="1356" target="1492" edge="1">
          <mxGeometry x="286.5" y="189.5" width="100" height="100" as="geometry">
            <mxPoint x="286.5" y="289.5" as="sourcePoint" />
            <mxPoint x="386.5" y="189.5" as="targetPoint" />
          </mxGeometry>
        </mxCell>
        <mxCell id="1506" value="" style="edgeStyle=none;endArrow=none;strokeWidth=3;strokeColor=#F08E81;html=1;" parent="1" source="1356" target="1493" edge="1">
          <mxGeometry x="286.5" y="189.5" width="100" height="100" as="geometry">
            <mxPoint x="286.5" y="289.5" as="sourcePoint" />
            <mxPoint x="386.5" y="189.5" as="targetPoint" />
          </mxGeometry>
        </mxCell>
        <mxCell id="1507" value="" style="edgeStyle=none;endArrow=none;strokeWidth=3;strokeColor=#F08E81;html=1;" parent="1" source="1356" edge="1">
          <mxGeometry x="286.5" y="189.5" width="100" height="100" as="geometry">
            <mxPoint x="286.5" y="289.5" as="sourcePoint" />
            <mxPoint x="566.5000000000005" y="1342.8936651583708" as="targetPoint" />
          </mxGeometry>
        </mxCell>
        <mxCell id="1508" value="" style="edgeStyle=none;endArrow=none;strokeWidth=3;strokeColor=#F08E81;html=1;" parent="1" source="1356" target="1495" edge="1">
          <mxGeometry x="286.5" y="189.5" width="100" height="100" as="geometry">
            <mxPoint x="286.5" y="289.5" as="sourcePoint" />
            <mxPoint x="386.5" y="189.5" as="targetPoint" />
          </mxGeometry>
        </mxCell>
        <mxCell id="1509" value="" style="edgeStyle=none;endArrow=none;strokeWidth=3;strokeColor=#F08E81;html=1;" parent="1" source="1356" target="1496" edge="1">
          <mxGeometry x="286.5" y="189.5" width="100" height="100" as="geometry">
            <mxPoint x="286.5" y="289.5" as="sourcePoint" />
            <mxPoint x="386.5" y="189.5" as="targetPoint" />
          </mxGeometry>
        </mxCell>
        <mxCell id="1510" value="" style="edgeStyle=none;endArrow=none;strokeWidth=3;strokeColor=#F08E81;html=1;" parent="1" source="1356" target="1497" edge="1">
          <mxGeometry x="286.5" y="189.5" width="100" height="100" as="geometry">
            <mxPoint x="286.5" y="289.5" as="sourcePoint" />
            <mxPoint x="386.5" y="189.5" as="targetPoint" />
          </mxGeometry>
        </mxCell>
        <mxCell id="1511" value="" style="edgeStyle=none;endArrow=none;strokeWidth=3;strokeColor=#F08E81;html=1;" parent="1" source="1356" target="1498" edge="1">
          <mxGeometry x="286.5" y="189.5" width="100" height="100" as="geometry">
            <mxPoint x="286.5" y="289.5" as="sourcePoint" />
            <mxPoint x="386.5" y="189.5" as="targetPoint" />
          </mxGeometry>
        </mxCell>
        <mxCell id="1512" value="" style="edgeStyle=none;endArrow=none;strokeWidth=3;strokeColor=#F08E81;html=1;" parent="1" source="1356" target="1499" edge="1">
          <mxGeometry x="286.5" y="189.5" width="100" height="100" as="geometry">
            <mxPoint x="286.5" y="289.5" as="sourcePoint" />
            <mxPoint x="386.5" y="189.5" as="targetPoint" />
          </mxGeometry>
        </mxCell>
        <mxCell id="1513" value="" style="edgeStyle=none;endArrow=none;strokeWidth=3;strokeColor=#F08E81;html=1;" parent="1" source="1356" target="1500" edge="1">
          <mxGeometry x="286.5" y="189.5" width="100" height="100" as="geometry">
            <mxPoint x="286.5" y="289.5" as="sourcePoint" />
            <mxPoint x="386.5" y="189.5" as="targetPoint" />
          </mxGeometry>
        </mxCell>
        <mxCell id="1514" style="edgeStyle=orthogonalEdgeStyle;rounded=0;html=1;exitX=0.75;exitY=0;entryX=0.75;entryY=0;startArrow=none;startFill=0;endArrow=block;endFill=1;jettySize=auto;orthogonalLoop=1;strokeColor=#12aab5;strokeWidth=6;fontSize=20;fontColor=#2F5B7C;" parent="1" source="1414" target="1414" edge="1">
          <mxGeometry relative="1" as="geometry" />
        </mxCell>
        <mxCell id="1515" value="前端技能图谱" style="ellipse;whiteSpace=wrap;html=1;shadow=0;fontFamily=Helvetica;fontSize=30;fontColor=#2F5B7C;align=center;strokeColor=#2F5B7C;strokeWidth=6;fillColor=#FFFFFF;fontStyle=1;gradientColor=none;" parent="1" vertex="1">
          <mxGeometry x="961" y="676.5" width="270" height="270" as="geometry" />
        </mxCell>
        <mxCell id="1516" value="Node.js" style="ellipse;whiteSpace=wrap;html=1;shadow=0;fontFamily=Helvetica;fontSize=20;fontColor=#FFFFFF;align=center;strokeWidth=3;fillColor=#736ca8;strokeColor=none;" parent="1" vertex="1">
          <mxGeometry x="285" y="869.5" width="120" height="120" as="geometry" />
        </mxCell>
        <mxCell id="1517" value="打包项目" style="rounded=1;fillColor=#a29dc5;strokeColor=none;strokeWidth=3;shadow=0;html=1;fontColor=#FFFFFF;" parent="1" vertex="1">
          <mxGeometry x="240" y="729.5" width="120" height="40" as="geometry" />
        </mxCell>
        <mxCell id="1520" value="服务器开发" style="rounded=1;fillColor=#a29dc5;strokeColor=none;strokeWidth=3;shadow=0;html=1;fontColor=#FFFFFF;" parent="1" vertex="1">
          <mxGeometry x="545" y="824.5" width="120" height="40" as="geometry" />
        </mxCell>
        <mxCell id="1521" value="koa" style="rounded=1;fillColor=#a29dc5;strokeColor=none;strokeWidth=3;shadow=0;html=1;fontColor=#FFFFFF;" parent="1" vertex="1">
          <mxGeometry x="525" y="914.5" width="120" height="40" as="geometry" />
        </mxCell>
        <mxCell id="1522" value="服务器渲染" style="rounded=1;fillColor=#a29dc5;strokeColor=none;strokeWidth=3;shadow=0;html=1;fontColor=#FFFFFF;" parent="1" vertex="1">
          <mxGeometry x="103.5" y="784.5" width="120" height="40" as="geometry" />
        </mxCell>
        <mxCell id="1523" value="egg.js" style="rounded=1;fillColor=#a29dc5;strokeColor=none;strokeWidth=3;shadow=0;html=1;fontColor=#FFFFFF;" parent="1" vertex="1">
          <mxGeometry x="445" y="979.5" width="120" height="40" as="geometry" />
        </mxCell>
        <mxCell id="1524" value="自动化测试" style="rounded=1;fillColor=#a29dc5;strokeColor=none;strokeWidth=3;shadow=0;html=1;fontColor=#FFFFFF;" parent="1" vertex="1">
          <mxGeometry x="395" y="1039.5" width="120" height="40" as="geometry" />
        </mxCell>
        <mxCell id="1525" value="redies" style="rounded=1;fillColor=#a29dc5;strokeColor=none;strokeWidth=3;shadow=0;html=1;fontColor=#FFFFFF;" parent="1" vertex="1">
          <mxGeometry x="255" y="1039.5" width="120" height="40" as="geometry" />
        </mxCell>
        <mxCell id="1526" value="异步I/O原理" style="rounded=1;fillColor=#a29dc5;strokeColor=none;strokeWidth=3;shadow=0;html=1;fontColor=#FFFFFF;" parent="1" vertex="1">
          <mxGeometry x="120" y="1008.75" width="115" height="35.75" as="geometry" />
        </mxCell>
        <mxCell id="1527" value="express" style="rounded=1;fillColor=#a29dc5;strokeColor=none;strokeWidth=3;shadow=0;html=1;fontColor=#FFFFFF;" parent="1" vertex="1">
          <mxGeometry x="40" y="954.5" width="120" height="40" as="geometry" />
        </mxCell>
        <mxCell id="1528" value="" style="edgeStyle=none;endArrow=none;strokeWidth=3;strokeColor=#A29DC5;html=1;" parent="1" source="1516" target="1517" edge="1">
          <mxGeometry x="-1525" y="-155.5" width="100" height="100" as="geometry">
            <mxPoint x="-1525" y="-55.5" as="sourcePoint" />
            <mxPoint x="-1425" y="-155.5" as="targetPoint" />
          </mxGeometry>
        </mxCell>
        <mxCell id="1529" value="服务器反向代理" style="rounded=1;fillColor=#a29dc5;strokeColor=none;strokeWidth=3;shadow=0;html=1;fontColor=#FFFFFF;" parent="1" vertex="1">
          <mxGeometry x="50" y="879.5" width="120" height="40" as="geometry" />
        </mxCell>
        <mxCell id="1532" value="" style="edgeStyle=none;endArrow=none;strokeWidth=3;strokeColor=#A29DC5;html=1;" parent="1" source="1516" target="1520" edge="1">
          <mxGeometry x="-1525" y="-155.5" width="100" height="100" as="geometry">
            <mxPoint x="-1525" y="-55.5" as="sourcePoint" />
            <mxPoint x="-1425" y="-155.5" as="targetPoint" />
          </mxGeometry>
        </mxCell>
        <mxCell id="1533" value="" style="edgeStyle=none;endArrow=none;strokeWidth=3;strokeColor=#A29DC5;html=1;" parent="1" source="1516" target="1521" edge="1">
          <mxGeometry x="-1525" y="-155.5" width="100" height="100" as="geometry">
            <mxPoint x="-1525" y="-55.5" as="sourcePoint" />
            <mxPoint x="-1425" y="-155.5" as="targetPoint" />
          </mxGeometry>
        </mxCell>
        <mxCell id="1534" value="" style="edgeStyle=none;endArrow=none;strokeWidth=3;strokeColor=#A29DC5;html=1;" parent="1" source="1516" target="1522" edge="1">
          <mxGeometry x="-1525" y="-155.5" width="100" height="100" as="geometry">
            <mxPoint x="-1525" y="-55.5" as="sourcePoint" />
            <mxPoint x="-1425" y="-155.5" as="targetPoint" />
          </mxGeometry>
        </mxCell>
        <mxCell id="1535" value="" style="edgeStyle=none;endArrow=none;strokeWidth=3;strokeColor=#A29DC5;html=1;" parent="1" source="1516" target="1523" edge="1">
          <mxGeometry x="-1525" y="-155.5" width="100" height="100" as="geometry">
            <mxPoint x="-1525" y="-55.5" as="sourcePoint" />
            <mxPoint x="-1425" y="-155.5" as="targetPoint" />
          </mxGeometry>
        </mxCell>
        <mxCell id="1536" value="" style="edgeStyle=none;endArrow=none;strokeWidth=3;strokeColor=#A29DC5;html=1;" parent="1" source="1516" target="1524" edge="1">
          <mxGeometry x="-1525" y="-155.5" width="100" height="100" as="geometry">
            <mxPoint x="-1525" y="-55.5" as="sourcePoint" />
            <mxPoint x="-1425" y="-155.5" as="targetPoint" />
          </mxGeometry>
        </mxCell>
        <mxCell id="1537" value="" style="edgeStyle=none;endArrow=none;strokeWidth=3;strokeColor=#A29DC5;html=1;" parent="1" source="1516" target="1525" edge="1">
          <mxGeometry x="-1525" y="-155.5" width="100" height="100" as="geometry">
            <mxPoint x="-1525" y="-55.5" as="sourcePoint" />
            <mxPoint x="-1425" y="-155.5" as="targetPoint" />
          </mxGeometry>
        </mxCell>
        <mxCell id="1538" value="" style="edgeStyle=none;endArrow=none;strokeWidth=3;strokeColor=#A29DC5;html=1;" parent="1" source="1516" target="1526" edge="1">
          <mxGeometry x="-1525" y="-155.5" width="100" height="100" as="geometry">
            <mxPoint x="-1525" y="-55.5" as="sourcePoint" />
            <mxPoint x="-1425" y="-155.5" as="targetPoint" />
          </mxGeometry>
        </mxCell>
        <mxCell id="1539" value="" style="edgeStyle=none;endArrow=none;strokeWidth=3;strokeColor=#A29DC5;html=1;" parent="1" source="1516" edge="1">
          <mxGeometry x="-1525" y="-155.5" width="100" height="100" as="geometry">
            <mxPoint x="-1525" y="-55.5" as="sourcePoint" />
            <mxPoint x="130" y="960.7727272727275" as="targetPoint" />
          </mxGeometry>
        </mxCell>
        <mxCell id="1540" value="" style="edgeStyle=none;endArrow=none;strokeWidth=3;strokeColor=#A29DC5;html=1;" parent="1" source="1516" target="1529" edge="1">
          <mxGeometry x="-1525" y="-155.5" width="100" height="100" as="geometry">
            <mxPoint x="-1525" y="-55.5" as="sourcePoint" />
            <mxPoint x="-1425" y="-155.5" as="targetPoint" />
          </mxGeometry>
        </mxCell>
        <mxCell id="1541" value="" style="edgeStyle=none;endArrow=none;strokeWidth=3;strokeColor=#A29DC5;html=1;" parent="1" source="1354" target="1459" edge="1">
          <mxGeometry x="-1042.5" y="-735.5" width="100" height="100" as="geometry">
            <mxPoint x="-1042.5" y="-635.5" as="sourcePoint" />
            <mxPoint x="-942.5" y="-735.5" as="targetPoint" />
          </mxGeometry>
        </mxCell>
        <mxCell id="1542" style="edgeStyle=none;rounded=0;html=1;exitX=0.5;exitY=1;endArrow=none;endFill=0;jettySize=auto;orthogonalLoop=1;strokeColor=#736CA8;strokeWidth=2;fillColor=#64bbe2;fontSize=20;fontColor=#23445D;" parent="1" source="1529" target="1529" edge="1">
          <mxGeometry relative="1" as="geometry" />
        </mxCell>
        <mxCell id="CmsdJY4IkPbVyUGUAFs8-1544" value="插件封装" style="rounded=1;fillColor=#64BBE2;strokeColor=none;strokeWidth=3;shadow=0;html=1;fontColor=#FFFFFF;" vertex="1" parent="1">
          <mxGeometry x="315" y="345" width="130" height="40" as="geometry" />
        </mxCell>
        <mxCell id="CmsdJY4IkPbVyUGUAFs8-1545" value="" style="edgeStyle=none;endArrow=none;strokeWidth=3;strokeColor=#64BBE2;html=1;entryX=0;entryY=0.5;entryDx=0;entryDy=0;" edge="1" parent="1" target="CmsdJY4IkPbVyUGUAFs8-1544">
          <mxGeometry x="-566.5" y="160" width="100" height="100" as="geometry">
            <mxPoint x="275.7699207373771" y="387.9792279069143" as="sourcePoint" />
            <mxPoint x="357.61764705882365" y="285.0000000000001" as="targetPoint" />
          </mxGeometry>
        </mxCell>
        <mxCell id="CmsdJY4IkPbVyUGUAFs8-1546" style="edgeStyle=orthogonalEdgeStyle;rounded=0;orthogonalLoop=1;jettySize=auto;html=1;exitX=0.5;exitY=1;exitDx=0;exitDy=0;" edge="1" parent="1" source="1498" target="1498">
          <mxGeometry relative="1" as="geometry" />
        </mxCell>
        <mxCell id="CmsdJY4IkPbVyUGUAFs8-1552" value="" style="edgeStyle=none;endArrow=none;strokeWidth=3;strokeColor=#A29DC5;html=1;" edge="1" parent="1">
          <mxGeometry x="382.5" y="-430.5" width="100" height="100" as="geometry">
            <mxPoint x="1965.6225991909505" y="954.5289258613298" as="sourcePoint" />
            <mxPoint x="1999.166666666667" y="1004.5" as="targetPoint" />
          </mxGeometry>
        </mxCell>
        <mxCell id="CmsdJY4IkPbVyUGUAFs8-1553" value="热更新" style="rounded=1;fillColor=#a29dc5;strokeColor=none;strokeWidth=3;shadow=0;html=1;fontColor=#FFFFFF;" vertex="1" parent="1">
          <mxGeometry x="2079.04" y="964.5" width="120" height="40" as="geometry" />
        </mxCell>
        <mxCell id="CmsdJY4IkPbVyUGUAFs8-1554" value="" style="edgeStyle=none;endArrow=none;strokeWidth=3;strokeColor=#A29DC5;html=1;exitX=0.996;exitY=0.613;exitDx=0;exitDy=0;exitPerimeter=0;" edge="1" parent="1" source="1354">
          <mxGeometry x="509.04" y="-470.5" width="100" height="100" as="geometry">
            <mxPoint x="2020" y="923.01" as="sourcePoint" />
            <mxPoint x="2125.706666666667" y="964.5" as="targetPoint" />
          </mxGeometry>
        </mxCell>
        <mxCell id="CmsdJY4IkPbVyUGUAFs8-1558" value="爬虫" style="rounded=1;fillColor=#a29dc5;strokeColor=none;strokeWidth=3;shadow=0;html=1;fontColor=#FFFFFF;" vertex="1" parent="1">
          <mxGeometry x="395" y="760" width="120" height="40" as="geometry" />
        </mxCell>
        <mxCell id="CmsdJY4IkPbVyUGUAFs8-1559" value="" style="edgeStyle=none;endArrow=none;strokeWidth=3;strokeColor=#A29DC5;html=1;exitX=1;exitY=0;exitDx=0;exitDy=0;" edge="1" parent="1" target="CmsdJY4IkPbVyUGUAFs8-1558" source="1516">
          <mxGeometry x="-1370" y="-125" width="100" height="100" as="geometry">
            <mxPoint x="485.4478624978201" y="901.7914499912795" as="sourcePoint" />
            <mxPoint x="-1270" y="-125" as="targetPoint" />
          </mxGeometry>
        </mxCell>
      </root>
    </mxGraphModel>
  </diagram>
</mxfile>
